<svg width="128" height="128" viewBox="0 0 128 128" fill="none" xmlns="http://www.w3.org/2000/svg">
    <path d="M43.9 90.8999L18.2 102.5V36.5999L43.9 24.8999V90.8999Z" fill="#FF5855" />
    <path d="M43.9 90.8999L69.6 102.5V36.5999L43.9 24.8999V90.8999Z" fill="#FF5855" />
    <path d="M95.3 90.8999L69.6 102.5V36.5999L95.3 24.8999V90.8999Z" fill="#FF5855" />
    <path d="M95.3 90.8999L69.6 102.5V36.5999L95.3 24.8999V90.8999Z" fill="#FF5855" />
    <path d="M95.3 90.8999L121 102.5V36.5999L95.3 24.8999V90.8999Z" fill="#FF5855" />
    <g opacity="0.5">
        <path d="M43.9 90.8999L69.6 102.5V36.5999L43.9 24.8999V90.8999Z" fill="#581166" />
    </g>
    <g opacity="0.5">
        <path d="M95.3 90.8999L121 102.5V36.5999L95.3 24.8999V90.8999Z" fill="#581166" />
    </g>
    <path d="M18.2 104.4C17.8 104.4 17.5 104.3 17.2 104.1C16.7 103.8 16.3 103.2 16.3 102.5V36.5999C16.3 35.8999 16.7 35.1999 17.4 34.8999L43.1 23.1999C43.7 22.8999 44.4 22.9999 44.9 23.2999C45.4 23.5999 45.8 24.1999 45.8 24.8999V90.8999C45.8 91.5999 45.4 92.2999 44.7 92.5999L19 104.2C18.8 104.3 18.5 104.4 18.2 104.4ZM20.1 37.7999V99.5999L42 89.6999V27.7999L20.1 37.7999Z" fill="#581166" />
    <path d="M69.6 104.4C69.3 104.4 69.1 104.3 68.8 104.2L43.2 92.5999C42.5 92.2999 42.1 91.5999 42.1 90.8999V24.8999C42.1 24.2999 42.4 23.6999 43 23.2999C43.5 22.9999 44.2 22.8999 44.8 23.1999L70.5 34.8999C71.2 35.1999 71.6 35.8999 71.6 36.5999V102.5C71.6 103.1 71.3 103.7 70.7 104.1C70.3 104.3 70 104.4 69.6 104.4ZM45.8 89.6999L67.7 99.5999V37.7999L45.8 27.7999V89.6999V89.6999Z" fill="#581166" />
    <path d="M69.6 104.4C69.2 104.4 68.9 104.3 68.6 104.1C68.1 103.8 67.7 103.2 67.7 102.5V36.5999C67.7 35.8999 68.1 35.1999 68.8 34.8999L94.5 23.1999C95.1 22.8999 95.8 22.9999 96.3 23.2999C96.8 23.5999 97.2 24.1999 97.2 24.8999V90.8999C97.2 91.5999 96.8 92.2999 96.1 92.5999L70.4 104.2C70.1 104.3 69.9 104.4 69.6 104.4ZM71.5 37.7999V99.5999L93.4 89.6999V27.7999L71.5 37.7999Z" fill="#581166" />
    <path d="M121 104.4C120.7 104.4 120.5 104.3 120.2 104.2L94.5 92.5999C93.8 92.2999 93.4 91.5999 93.4 90.8999V24.8999C93.4 24.2999 93.7 23.6999 94.3 23.2999C94.8 22.9999 95.5 22.8999 96.1 23.1999L121.8 34.8999C122.5 35.1999 122.9 35.8999 122.9 36.5999V102.5C122.9 103.1 122.6 103.7 122 104.1C121.7 104.3 121.4 104.4 121 104.4ZM97.2 89.6999L119.1 99.5999V37.7999L97.2 27.7999V89.6999V89.6999Z" fill="#581166" />
    <path d="M69.6 20.3999C59.8 20.3999 51.8 28.3999 51.8 38.1999C51.8 47.9999 66.6 67.7999 69.6 67.7999C72.6 67.7999 87.4 47.9999 87.4 38.1999C87.4 28.3999 79.4 20.3999 69.6 20.3999ZM69.6 46.9999C63.9 46.9999 59.4 42.3999 59.4 36.7999C59.4 31.0999 64 26.5999 69.6 26.5999C75.2 26.5999 79.8 31.1999 79.8 36.7999C79.8 42.3999 75.3 46.9999 69.6 46.9999Z" fill="#FFDA8E" />
    <path d="M69.6 47.0001C75.2333 47.0001 79.8 42.4334 79.8 36.8001C79.8 31.1668 75.2333 26.6001 69.6 26.6001C63.9667 26.6001 59.4 31.1668 59.4 36.8001C59.4 42.4334 63.9667 47.0001 69.6 47.0001Z" fill="white" />
    <path d="M69.6 69.7C64.6 69.7 49.9 47.8 49.9 38.2C49.9 33 51.9 28 55.7 24.3C59.4 20.6 64.3 18.5 69.6 18.5C80.4 18.5 89.3 27.3 89.3 38.2C89.3 47.8 74.6 69.7 69.6 69.7ZM69.6 22.3C65.4 22.3 61.4 24 58.4 27C55.4 30 53.7 34 53.7 38.2C53.7 46.5 66.2 63.8 69.6 65.8C73 63.8 85.5 46.5 85.5 38.2C85.5 29.4 78.4 22.3 69.6 22.3ZM69.6 48.9C62.9 48.9 57.5 43.5 57.5 36.8C57.5 30.1 62.9 24.7 69.6 24.7C76.3 24.7 81.7 30.1 81.7 36.8C81.7 43.5 76.3 48.9 69.6 48.9ZM69.6 28.4C65 28.4 61.2 32.1 61.2 36.8C61.2 41.4 64.9 45.2 69.6 45.2C74.2 45.2 78 41.5 78 36.8C78 32.2 74.2 28.4 69.6 28.4Z" fill="#581166" />
</svg>
    